<svg width="572" height="888" viewBox="0 0 572 888" fill="none" xmlns="http://www.w3.org/2000/svg">
    <path id="forehead"
          d="M492.128 167.888C510.685 148.644 487.751 72.5927 454.524 43.4281C421.296 14.2635 328.767 2.88074 276.348 2.88074C223.929 2.88074 132.503 20.8164 104.691 43.4281C76.8781 66.0398 44.4205 142.424 62.0644 169.94C79.0155 196.375 186.487 185.342 230.265 212.593C274.044 239.843 265.316 268.477 289.265 268.477C313.214 268.477 308.606 243.615 343.167 212.593C377.729 181.57 471.413 189.371 492.128 167.888Z"
          fill="#FDFDFD"
          fill-opacity="0.330677"
          stroke="white"
          stroke-opacity="0.984064"
          stroke-width="3.54228"/>
    <path id="nose"
          d="M320.225 348.953C327.8 378.232 358.902 435.78 352.507 450.129C343.741 469.795 321.434 436.779 292.96 436.743C265.267 436.708 237.649 472.648 235.98 449.113C234.311 425.579 263 381.571 269.615 348.953C283.204 281.942 302.886 281.942 320.225 348.953Z"
          fill="#FDFDFD"
          fill-opacity="0.330677"
          stroke="white"
          stroke-opacity="0.984064"
          stroke-width="3.54228"/>
    <path id="cheek-temple-left"
          d="M425.305 368.389C401.051 366.324 381.453 337.74 367.2 368.389C352.948 399.039 369.393 455.959 400.09 475.663C430.787 495.366 507.225 465.206 531.344 425.799C546.113 401.669 559.483 313.92 559.483 280.306C559.483 246.692 559.483 220.604 542.901 205.553C526.319 190.502 490.644 187.993 519.787 218.597C548.931 249.201 533.856 314.923 523.807 334.738C513.757 354.553 459.568 370.818 425.305 368.389Z"
          fill="#FDFDFD"
          fill-opacity="0.330677"
          stroke="white"
          stroke-opacity="0.984064"
          stroke-width="3.54228"/>
    <path id="jowl-right"
          d="M170.776 523.711C196.868 557.642 155.12 575.912 157.077 601.36C159.034 626.808 213.828 641.163 206.653 674.442C199.477 707.72 145.988 668.569 109.459 625.503C84.4603 596.032 44.0499 524.917 53.7837 498.949C60.6725 480.571 140.694 484.592 170.776 523.711Z"
          fill="#FDFDFD"
          fill-opacity="0.330677"
          stroke="white"
          stroke-opacity="0.984064"
          stroke-width="3.54228"/>
    <path id="jowl-right"
          d="M406.524 523.38C380.432 557.37 422.18 575.672 420.223 601.164C418.266 626.657 363.472 641.037 370.647 674.373C377.823 707.709 431.312 668.49 467.842 625.349C492.84 595.827 533.25 524.588 523.516 498.575C516.628 480.166 436.606 484.194 406.524 523.38Z"
          fill="#FDFDFD"
          fill-opacity="0.330677"
          stroke="white"
          stroke-opacity="0.984064"
          stroke-width="3.54228"/>
    <path id="chin"
          d="M342.816 651.119C358.738 662.419 342.063 703.343 320.548 713.747C297.481 724.902 289.827 727.113 260.832 714.018C233.885 701.848 225.627 658.325 240.117 647.19C262.358 630.1 320.724 635.44 342.816 651.119Z"
          fill="#FDFDFD"
          fill-opacity="0.330677"
          stroke="white"
          stroke-opacity="0.984064"
          stroke-width="3.54228"/>
    <path id="upper-lip"
          d="M374.174 517.439C391.289 529.314 388.606 558.801 361.288 538.225C339.45 521.776 241.435 521.306 213.558 540.679C181.492 562.963 188.857 525.917 205.991 516.222C232.035 501.484 350.426 500.961 374.174 517.439Z"
          fill="#FDFDFD"
          fill-opacity="0.330677"
          stroke="white"
          stroke-opacity="0.984064"
          stroke-width="3.54228"/>
    <path id="neck-right"
          d="M266 768C278.6 784.665 270.5 805.5 266 813.192C249.56 841.291 144.603 838.577 117.471 803.761C93.5142 773.02 87.9416 678 117.471 691C138 700.038 143.5 708.403 176.5 728.5C209.5 748.597 253.399 751.335 266 768Z"
          fill="#FDFDFD"
          fill-opacity="0.330677"
          stroke="white"
          stroke-opacity="0.984064"
          stroke-width="3.77953"/>
    <path id="neck-left"
          d="M299 767C286.4 783.665 296 804.5 299 812.192C310.83 842.521 420.397 837.577 447.529 802.761C471.486 772.02 477.058 677 447.529 690C427 699.038 421.5 707.403 388.5 727.5C355.5 747.597 311.601 750.335 299 767Z"
          fill="#FDFDFD"
          fill-opacity="0.330677"
          stroke="white"
          stroke-opacity="0.984064"
          stroke-width="3.77953"/>
    <path id="cheek-temple-right"
          d="M154.695 369.389C178.949 367.324 198.547 338.74 212.8 369.389C227.052 400.039 210.607 456.959 179.91 476.663C149.213 496.366 72.775 466.206 48.656 426.799C33.8867 402.669 20.5173 314.92 20.5173 281.306C20.5173 247.692 20.5173 221.604 37.099 206.553C53.6807 191.502 89.3564 188.993 60.2129 219.597C31.0693 250.201 46.1436 315.924 56.1931 335.738C66.2426 355.553 120.432 371.818 154.695 369.389Z"
          fill="#FDFDFD"
          fill-opacity="0.330677"
          stroke="white"
          stroke-opacity="0.984064"
          stroke-width="3.77953"/>
</svg>
